<?xml version="1.0" encoding="UTF-8" standalone="no"?>
<svg
   xmlns:dc="http://purl.org/dc/elements/1.1/"
   xmlns:cc="http://creativecommons.org/ns#"
   xmlns:rdf="http://www.w3.org/1999/02/22-rdf-syntax-ns#"
   xmlns:svg="http://www.w3.org/2000/svg"
   xmlns="http://www.w3.org/2000/svg"
   xmlns:sodipodi="http://sodipodi.sourceforge.net/DTD/sodipodi-0.dtd"
   xmlns:inkscape="http://www.inkscape.org/namespaces/inkscape"
   width="300mm"
   height="50mm"
   viewBox="0 0 300 50"
   version="1.1"
   id="svg8"
   inkscape:version="1.0.2-2 (e86c870879, 2021-01-15)"
   sodipodi:docname="L+t.svg">
  <defs
     id="defs2" />
  <sodipodi:namedview
     id="base"
     pagecolor="#ffffff"
     bordercolor="#666666"
     borderopacity="1.0"
     inkscape:pageopacity="0.0"
     inkscape:pageshadow="2"
     inkscape:zoom="0.98994949"
     inkscape:cx="521.74031"
     inkscape:cy="216.15796"
     inkscape:document-units="mm"
     inkscape:current-layer="layer1"
     inkscape:document-rotation="0"
     showgrid="false"
     inkscape:window-width="2560"
     inkscape:window-height="1417"
     inkscape:window-x="-8"
     inkscape:window-y="-8"
     inkscape:window-maximized="1" />
  <metadata
     id="metadata5">
    <rdf:RDF>
      <cc:Work
         rdf:about="">
        <dc:format>image/svg+xml</dc:format>
        <dc:type
           rdf:resource="http://purl.org/dc/dcmitype/StillImage" />
        <dc:title></dc:title>
      </cc:Work>
    </rdf:RDF>
  </metadata>
  <g
     inkscape:label="Layer 1"
     inkscape:groupmode="layer"
     id="layer1">
    <g
       id="g183"
       transform="matrix(0.5,0,0,0.5,-27.5,-49.25)">
      <path
         style="color:#000000;font-style:normal;font-variant:normal;font-weight:normal;font-stretch:normal;font-size:medium;line-height:normal;font-family:sans-serif;font-variant-ligatures:normal;font-variant-position:normal;font-variant-caps:normal;font-variant-numeric:normal;font-variant-alternates:normal;font-variant-east-asian:normal;font-feature-settings:normal;font-variation-settings:normal;text-indent:0;text-align:start;text-decoration:none;text-decoration-line:none;text-decoration-style:solid;text-decoration-color:#000000;letter-spacing:normal;word-spacing:normal;text-transform:none;writing-mode:lr-tb;direction:ltr;text-orientation:mixed;dominant-baseline:auto;baseline-shift:baseline;text-anchor:start;white-space:normal;shape-padding:0;shape-margin:0;inline-size:0;clip-rule:nonzero;display:inline;overflow:visible;visibility:visible;opacity:1;isolation:auto;mix-blend-mode:normal;color-interpolation:sRGB;color-interpolation-filters:linearRGB;solid-color:#000000;solid-opacity:1;vector-effect:none;fill:#5599ff;fill-opacity:1;fill-rule:nonzero;stroke:none;stroke-width:0.191109;stroke-linecap:butt;stroke-linejoin:miter;stroke-miterlimit:4;stroke-dasharray:none;stroke-dashoffset:0;stroke-opacity:1;color-rendering:auto;image-rendering:auto;shape-rendering:auto;text-rendering:auto;enable-background:accumulate;stop-color:#000000;stop-opacity:1"
         d="m 55,98.5 h 100 v 100 H 55 Z"
         id="rect24" />
      <path
         id="path22"
         style="color:#000000;font-style:normal;font-variant:normal;font-weight:normal;font-stretch:normal;font-size:medium;line-height:normal;font-family:sans-serif;font-variant-ligatures:normal;font-variant-position:normal;font-variant-caps:normal;font-variant-numeric:normal;font-variant-alternates:normal;font-variant-east-asian:normal;font-feature-settings:normal;font-variation-settings:normal;text-indent:0;text-align:start;text-decoration:none;text-decoration-line:none;text-decoration-style:solid;text-decoration-color:#000000;letter-spacing:normal;word-spacing:normal;text-transform:none;writing-mode:lr-tb;direction:ltr;text-orientation:mixed;dominant-baseline:auto;baseline-shift:baseline;text-anchor:start;white-space:normal;shape-padding:0;shape-margin:0;inline-size:0;clip-rule:nonzero;display:inline;overflow:visible;visibility:visible;opacity:1;isolation:auto;mix-blend-mode:normal;color-interpolation:sRGB;color-interpolation-filters:linearRGB;solid-color:#000000;solid-opacity:1;vector-effect:none;fill:#ffffff;fill-opacity:1;fill-rule:nonzero;stroke:none;stroke-width:0.134174;stroke-linecap:butt;stroke-linejoin:miter;stroke-miterlimit:4;stroke-dasharray:none;stroke-dashoffset:0;stroke-opacity:1;color-rendering:auto;image-rendering:auto;shape-rendering:auto;text-rendering:auto;enable-background:accumulate;stop-color:#000000;stop-opacity:1"
         d="m 327.49609,456.94531 c -9.72101,0 -19.44249,3.69033 -26.85937,11.07031 -8.19198,8.15123 -11.85023,19.09808 -10.99414,29.75391 v 142.52539 c -0.60968,10.40027 3.04987,21.00299 10.99609,28.94922 6.99172,6.99172 16.04147,10.66536 25.19922,11.0332 v 0.0176 h 0.70313 c 0.54941,0.0119 1.09901,0.0119 1.64843,0 h 147.20703 c 9.94566,0.21571 19.9591,-3.46104 27.54883,-11.05078 14.75997,-14.75997 14.75998,-38.68924 0,-53.44922 -7.1767,-7.1767 -16.52126,-10.85309 -25.92578,-11.05078 v -0.0391 H 365.23438 V 498.96484 c 1.23957,-11.02757 -2.38023,-22.49282 -10.87891,-30.94922 -7.41689,-7.37998 -17.13836,-11.07031 -26.85938,-11.07031 z"
         transform="scale(0.26458333)" />
      <path
         style="color:#000000;font-style:normal;font-variant:normal;font-weight:normal;font-stretch:normal;font-size:medium;line-height:normal;font-family:sans-serif;font-variant-ligatures:normal;font-variant-position:normal;font-variant-caps:normal;font-variant-numeric:normal;font-variant-alternates:normal;font-variant-east-asian:normal;font-feature-settings:normal;font-variation-settings:normal;text-indent:0;text-align:start;text-decoration:none;text-decoration-line:none;text-decoration-style:solid;text-decoration-color:#000000;letter-spacing:normal;word-spacing:normal;text-transform:none;writing-mode:lr-tb;direction:ltr;text-orientation:mixed;dominant-baseline:auto;baseline-shift:baseline;text-anchor:start;white-space:normal;shape-padding:0;shape-margin:0;inline-size:0;clip-rule:nonzero;display:inline;overflow:visible;visibility:visible;opacity:1;isolation:auto;mix-blend-mode:normal;color-interpolation:sRGB;color-interpolation-filters:linearRGB;solid-color:#000000;solid-opacity:1;vector-effect:none;fill:#ffffff;fill-opacity:1;fill-rule:nonzero;stroke:none;stroke-width:0.0354118;stroke-linecap:butt;stroke-linejoin:miter;stroke-miterlimit:4;stroke-dasharray:none;stroke-dashoffset:0;stroke-opacity:1;color-rendering:auto;image-rendering:auto;shape-rendering:auto;text-rendering:auto;enable-background:accumulate;stop-color:#000000;stop-opacity:1"
         d="m 190.05649,5.0640655 c 0,5.5228475 -4.47715,9.9999995 -10,9.9999995 -5.52285,0 -10,-4.477152 -10,-9.9999995 0,-5.5228475 4.47715,-10 10,-10 5.52285,0 10,4.4771525 10,10 z"
         id="path22-9-0"
         transform="rotate(45)" />
    </g>
    <g
       aria-label="LEARN HTML"
       id="text46"
       style="font-style:normal;font-weight:normal;font-size:25.4px;line-height:1;font-family:sans-serif;letter-spacing:4.23333px;word-spacing:5.29167px;fill:#ffffff;fill-opacity:1;stroke:none;stroke-width:0.264583">
      <path
         d="M 85.449971,33.892479 H 75.60251 V 16.107518 h 2.951758 v 15.29209 h 6.895703 z"
         style="font-style:normal;font-variant:normal;font-weight:bold;font-stretch:normal;font-size:25.4px;font-family:'Yu Gothic UI';-inkscape-font-specification:'Yu Gothic UI Bold';fill:#ffffff;fill-opacity:1;stroke-width:0.264583"
         id="path48" />
      <path
         d="M 102.23447,33.892479 H 92.250585 V 16.107518 h 9.587015 v 2.505274 h -6.635257 v 5.035351 h 6.114357 v 2.492871 h -6.114357 v 5.258594 h 7.032127 z"
         style="font-style:normal;font-variant:normal;font-weight:bold;font-stretch:normal;font-size:25.4px;font-family:'Yu Gothic UI';-inkscape-font-specification:'Yu Gothic UI Bold';fill:#ffffff;fill-opacity:1;stroke-width:0.264583"
         id="path50" />
      <path
         d="m 124.24036,33.892479 h -3.23701 l -1.5999,-4.526855 h -6.99493 l -1.53789,4.526855 h -3.22461 l 6.66006,-17.784961 h 3.32383 z m -5.61826,-6.93291 -2.46807,-7.094141 q -0.11162,-0.347265 -0.23564,-1.116211 h -0.0496 q -0.11162,0.706934 -0.24805,1.116211 l -2.44326,7.094141 z"
         style="font-style:normal;font-variant:normal;font-weight:bold;font-stretch:normal;font-size:25.4px;font-family:'Yu Gothic UI';-inkscape-font-specification:'Yu Gothic UI Bold';fill:#ffffff;fill-opacity:1;stroke-width:0.264583"
         id="path52" />
      <path
         d="m 144.65875,33.892479 h -3.44785 l -2.84014,-4.7625 q -0.38447,-0.657324 -0.75654,-1.116211 -0.35967,-0.471289 -0.74414,-0.768945 -0.37207,-0.297656 -0.81856,-0.434082 -0.44648,-0.136426 -1.00459,-0.136426 h -1.19062 v 7.218164 h -2.93936 V 16.107518 h 5.85391 q 1.25263,0 2.30683,0.297657 1.0542,0.297656 1.83555,0.905371 0.78135,0.595312 1.21543,1.500683 0.44648,0.892969 0.44648,2.095996 0,0.942578 -0.28525,1.736328 -0.27285,0.781348 -0.79375,1.401465 -0.5085,0.607715 -1.24023,1.041797 -0.71934,0.434082 -1.62471,0.669727 v 0.04961 q 0.48369,0.272851 0.84336,0.607715 0.35967,0.322461 0.68213,0.669726 0.32246,0.347266 0.63252,0.79375 0.32246,0.434082 0.70693,1.016992 z M 133.85631,18.501171 v 5.779492 h 2.45566 q 0.68213,0 1.25264,-0.21084 0.58291,-0.21084 1.00459,-0.607715 0.42168,-0.396875 0.65732,-0.967383 0.23565,-0.570508 0.23565,-1.277441 0,-1.277442 -0.80616,-1.996777 -0.80615,-0.719336 -2.31923,-0.719336 z"
         style="font-style:normal;font-variant:normal;font-weight:bold;font-stretch:normal;font-size:25.4px;font-family:'Yu Gothic UI';-inkscape-font-specification:'Yu Gothic UI Bold';fill:#ffffff;fill-opacity:1;stroke-width:0.264583"
         id="path54" />
      <path
         d="m 166.04452,33.892479 h -3.22461 l -8.4956,-13.07207 q -0.32246,-0.496094 -0.5333,-1.029395 h -0.0744 q 0.0992,0.570508 0.0992,2.443262 v 11.658203 h -2.85254 V 16.107518 h 3.43545 l 8.21035,12.762012 q 0.5209,0.79375 0.66973,1.091406 h 0.0496 q -0.12402,-0.706934 -0.12402,-2.393652 V 16.107518 h 2.84013 z"
         style="font-style:normal;font-variant:normal;font-weight:bold;font-stretch:normal;font-size:25.4px;font-family:'Yu Gothic UI';-inkscape-font-specification:'Yu Gothic UI Bold';fill:#ffffff;fill-opacity:1;stroke-width:0.264583"
         id="path56" />
      <path
         d="m 205.4757,33.892479 h -2.96416 v -7.714258 h -8.37158 v 7.714258 H 191.1882 V 16.107518 h 2.95176 v 7.478613 h 8.37158 v -7.478613 h 2.96416 z"
         style="font-style:normal;font-variant:normal;font-weight:bold;font-stretch:normal;font-size:25.4px;font-family:'Yu Gothic UI';-inkscape-font-specification:'Yu Gothic UI Bold';fill:#ffffff;fill-opacity:1;stroke-width:0.264583"
         id="path58" />
      <path
         d="m 225.50961,18.612792 h -5.10976 v 15.279687 h -2.95176 V 18.612792 h -5.09736 v -2.505274 h 13.15888 z"
         style="font-style:normal;font-variant:normal;font-weight:bold;font-stretch:normal;font-size:25.4px;font-family:'Yu Gothic UI';-inkscape-font-specification:'Yu Gothic UI Bold';fill:#ffffff;fill-opacity:1;stroke-width:0.264583"
         id="path60" />
      <path
         d="M 251.44705,33.892479 H 248.5201 V 22.383104 q 0,-1.413867 0.17363,-3.460254 h -0.0496 q -0.27285,1.165821 -0.48369,1.674317 l -5.3082,13.295312 h -2.03399 l -5.3206,-13.196094 q -0.22324,-0.58291 -0.47129,-1.773535 h -0.0496 q 0.0992,1.066602 0.0992,3.485059 v 11.48457 h -2.72852 V 16.107518 h 4.15479 l 4.67568,11.844238 q 0.5333,1.364258 0.69453,2.033985 h 0.062 q 0.45888,-1.401465 0.74414,-2.083594 l 4.7625,-11.794629 h 4.00595 z"
         style="font-style:normal;font-variant:normal;font-weight:bold;font-stretch:normal;font-size:25.4px;font-family:'Yu Gothic UI';-inkscape-font-specification:'Yu Gothic UI Bold';fill:#ffffff;fill-opacity:1;stroke-width:0.264583"
         id="path62" />
      <path
         d="M 269.90586,33.892479 H 260.0584 V 16.107518 h 2.95175 v 15.29209 h 6.89571 z"
         style="font-style:normal;font-variant:normal;font-weight:bold;font-stretch:normal;font-size:25.4px;font-family:'Yu Gothic UI';-inkscape-font-specification:'Yu Gothic UI Bold';fill:#ffffff;fill-opacity:1;stroke-width:0.264583"
         id="path64" />
    </g>
  </g>
</svg>
